<svg xmlns="http://www.w3.org/2000/svg" xmlns:xlink="http://www.w3.org/1999/xlink" width="500" zoomAndPan="magnify" viewBox="0 0 375 374.999991" height="500" preserveAspectRatio="xMidYMid meet" version="1.0"><defs><g><g id="id1"/><g id="id2"/><g id="id3"/><g id="id4"/><g id="id5"/><g id="id6"/><g id="id7"/><g id="id8"/><g id="id9"/><g id="id10"/><g id="id11"/><g id="id12"/><g id="id13"/><g id="id14"/><g id="id15"/><g id="id16"/><g id="id17"/><g id="id18"/><g id="id19"/><g id="id20"/><g id="id21"/><g id="id22"/></g><clipPath id="id23"><path d="M 56.257812 56.257812 L 318.757812 56.257812 L 318.757812 318.757812 L 56.257812 318.757812 Z M 56.257812 56.257812 " clip-rule="nonzero"/></clipPath><clipPath id="id24"><path d="M 60.722656 60.722656 L 314.222656 60.722656 L 314.222656 314.222656 L 60.722656 314.222656 Z M 60.722656 60.722656 " clip-rule="nonzero"/></clipPath><clipPath id="id25"><path d="M 88.800781 88.800781 L 286.050781 88.800781 L 286.050781 286.050781 L 88.800781 286.050781 Z M 88.800781 88.800781 " clip-rule="nonzero"/></clipPath><clipPath id="id26"><path d="M 112.5 115 L 262.5 115 L 262.5 195 L 112.5 195 Z M 112.5 115 " clip-rule="nonzero"/></clipPath></defs><rect x="-37.5" width="450" fill="rgb(100%, 100%, 100%)" y="-37.499999" height="449.999989" fill-opacity="1"/><rect x="-37.5" width="450" fill="rgb(100%, 100%, 100%)" y="-37.499999" height="449.999989" fill-opacity="1"/><rect x="-37.5" width="450" fill="rgb(100%, 100%, 100%)" y="-37.499999" height="449.999989" fill-opacity="1"/><rect x="-37.5" width="450" fill="rgb(100%, 100%, 100%)" y="-37.499999" height="449.999989" fill-opacity="1"/><g clip-path="url(#id23)"><path fill="rgb(15.289307%, 15.289307%, 15.289307%)" d="M 187.507812 318.757812 C 115.160156 318.757812 56.257812 259.859375 56.257812 187.507812 C 56.257812 115.160156 115.160156 56.257812 187.507812 56.257812 C 259.859375 56.257812 318.757812 115.160156 318.757812 187.507812 C 318.757812 259.859375 259.859375 318.757812 187.507812 318.757812 Z M 187.507812 58.199219 C 116.195312 58.199219 58.199219 116.195312 58.199219 187.507812 C 58.199219 258.824219 116.195312 316.820312 187.507812 316.820312 C 258.824219 316.820312 316.820312 258.824219 316.820312 187.507812 C 316.820312 116.195312 258.824219 58.199219 187.507812 58.199219 Z M 187.507812 58.199219 " fill-opacity="1" fill-rule="nonzero"/></g><g clip-path="url(#id24)"><path fill="rgb(32.548523%, 24.308777%, 52.159119%)" d="M 187.472656 314.222656 C 117.601562 314.222656 60.722656 257.339844 60.722656 187.472656 C 60.722656 117.601562 117.601562 60.722656 187.472656 60.722656 C 257.339844 60.722656 314.222656 117.601562 314.222656 187.472656 C 314.222656 257.339844 257.339844 314.222656 187.472656 314.222656 Z M 187.472656 62.59375 C 118.601562 62.59375 62.59375 118.601562 62.59375 187.472656 C 62.59375 256.339844 118.601562 312.347656 187.472656 312.347656 C 256.339844 312.347656 312.347656 256.339844 312.347656 187.472656 C 312.347656 118.601562 256.339844 62.59375 187.472656 62.59375 Z M 187.472656 62.59375 " fill-opacity="1" fill-rule="nonzero"/></g><path fill="rgb(86.669922%, 86.669922%, 86.669922%)" d="M 187.523438 90.773438 C 134.089844 90.773438 90.773438 134.089844 90.773438 187.523438 C 90.773438 240.957031 134.089844 284.273438 187.523438 284.273438 C 240.957031 284.273438 284.273438 240.957031 284.273438 187.523438 C 284.273438 134.089844 240.957031 90.773438 187.523438 90.773438 " fill-opacity="1" fill-rule="nonzero"/><g clip-path="url(#id25)"><path fill="rgb(32.548523%, 24.308777%, 52.159119%)" d="M 187.425781 286.050781 C 133.0625 286.050781 88.800781 241.792969 88.800781 187.425781 C 88.800781 133.0625 133.0625 88.800781 187.425781 88.800781 C 241.792969 88.800781 286.050781 133.0625 286.050781 187.425781 C 286.050781 241.792969 241.792969 286.050781 187.425781 286.050781 Z M 187.425781 90.257812 C 133.839844 90.257812 90.257812 133.839844 90.257812 187.425781 C 90.257812 241.015625 133.839844 284.59375 187.425781 284.59375 C 241.015625 284.59375 284.59375 241.015625 284.59375 187.425781 C 284.59375 133.839844 241.015625 90.257812 187.425781 90.257812 Z M 187.425781 90.257812 " fill-opacity="1" fill-rule="nonzero"/></g><path stroke-linecap="round" transform="matrix(1.490235, 0, 0, 1.5, 164.092962, 245.264501)" fill="none" stroke-linejoin="miter" d="M 0.501184 0.000749004 L 30.708244 0.000749004 " stroke="rgb(32.548523%, 24.308777%, 52.159119%)" stroke-width="1" stroke-opacity="1" stroke-miterlimit="4"/><path stroke-linecap="round" transform="matrix(1.501466, 0, 0, 1.5, 175.506526, 253.526292)" fill="none" stroke-linejoin="miter" d="M 0.500369 0.000701066 L 15.490925 0.000701066 " stroke="rgb(32.548523%, 24.308777%, 52.159119%)" stroke-width="1" stroke-opacity="1" stroke-miterlimit="4"/><g clip-path="url(#id26)"><path fill="rgb(32.548523%, 24.308777%, 52.159119%)" d="M 262.3125 194.402344 L 248.253906 179.273438 L 234.519531 164.570312 C 234.699219 155.425781 234.933594 146.28125 235.058594 137.136719 C 235.074219 136.15625 234.289062 135.347656 233.308594 135.332031 L 233.25 135.332031 L 218.476562 135.085938 C 217.359375 135.070312 216.441406 135.957031 216.425781 137.070312 L 216.421875 137.136719 L 216.304688 144.296875 L 204.863281 132.160156 L 189.667969 115.972656 L 189.617188 115.917969 C 188.460938 114.75 186.574219 114.734375 185.402344 115.886719 L 185.316406 115.972656 C 178.960938 122.214844 172.5625 128.417969 166.328125 134.777344 C 160.085938 141.132812 153.960938 147.601562 147.925781 154.15625 C 144.882812 157.410156 141.890625 160.707031 138.90625 164.015625 C 135.894531 167.300781 132.953125 170.652344 129.996094 173.984375 C 124.113281 180.691406 118.28125 187.4375 112.667969 194.402344 C 112.570312 194.53125 112.570312 194.710938 112.675781 194.839844 C 112.796875 194.980469 113.015625 194.996094 113.15625 194.875 C 119.972656 189.082031 126.570312 183.070312 133.117188 177.015625 C 136.375 173.96875 139.648438 170.941406 142.851562 167.847656 C 146.085938 164.773438 149.304688 161.691406 152.476562 158.566406 C 158.871094 152.359375 165.175781 146.070312 171.367188 139.664062 C 176.851562 134 182.210938 128.210938 187.582031 122.429688 L 201.101562 135.8125 L 216.851562 151.460938 L 216.910156 151.515625 C 217.324219 151.925781 217.898438 152.175781 218.527344 152.164062 C 219.765625 152.144531 220.753906 151.125 220.738281 149.886719 L 220.558594 139.148438 L 231.472656 138.972656 C 231.605469 147.667969 231.824219 156.359375 231.992188 165.054688 L 231.992188 165.109375 C 232 165.40625 232.121094 165.703125 232.347656 165.929688 L 247.066406 180.421875 L 261.832031 194.875 C 261.953125 195 262.160156 195.003906 262.296875 194.882812 C 262.433594 194.753906 262.4375 194.542969 262.3125 194.402344 " fill-opacity="1" fill-rule="nonzero"/></g><path fill="rgb(32.548523%, 24.308777%, 52.159119%)" d="M 172.890625 179.144531 L 186.46875 179.144531 L 186.46875 165.601562 L 172.890625 165.601562 L 172.890625 179.144531 " fill-opacity="1" fill-rule="nonzero"/><path fill="rgb(32.548523%, 24.308777%, 52.159119%)" d="M 172.890625 194.640625 L 186.46875 194.640625 L 186.46875 181.09375 L 172.890625 181.09375 L 172.890625 194.640625 " fill-opacity="1" fill-rule="nonzero"/><path fill="rgb(32.548523%, 24.308777%, 52.159119%)" d="M 188.515625 194.640625 L 202.089844 194.640625 L 202.089844 181.09375 L 188.515625 181.09375 L 188.515625 194.640625 " fill-opacity="1" fill-rule="nonzero"/><path fill="rgb(32.548523%, 24.308777%, 52.159119%)" d="M 188.515625 179.144531 L 202.089844 179.144531 L 202.089844 165.601562 L 188.515625 165.601562 L 188.515625 179.144531 " fill-opacity="1" fill-rule="nonzero"/><path fill="rgb(32.548523%, 24.308777%, 52.159119%)" d="M 218.941406 162.390625 C 213.875 157.023438 208.730469 151.738281 203.625 146.410156 L 188.21875 130.519531 L 188.195312 130.496094 C 187.792969 130.105469 187.152344 130.117188 186.761719 130.519531 L 171.359375 146.410156 C 166.253906 151.738281 161.113281 157.027344 156.046875 162.390625 L 140.804688 178.441406 C 135.777344 183.84375 130.699219 189.195312 125.714844 194.640625 C 131.027344 189.515625 136.246094 184.296875 141.515625 179.132812 L 157.160156 163.472656 C 162.390625 158.265625 167.542969 152.988281 172.734375 147.742188 L 187.492188 132.671875 L 202.246094 147.746094 C 207.4375 152.988281 212.589844 158.269531 217.820312 163.476562 L 233.46875 179.132812 C 238.738281 184.300781 243.957031 189.515625 249.269531 194.640625 C 244.285156 189.195312 239.207031 183.84375 234.183594 178.441406 L 218.941406 162.390625 " fill-opacity="1" fill-rule="nonzero"/><g fill="rgb(32.548523%, 24.308777%, 52.159119%)" fill-opacity="1"><g transform="translate(143.189991, 91.192562)"><g><path d="M 8.3125 -3.4375 L 6.90625 -2.84375 L 5.375 -6.5625 L 1.078125 -4.796875 L 2.609375 -1.078125 L 1.203125 -0.5 L -2.40625 -9.25 L -1 -9.828125 L 0.515625 -6.140625 L 4.8125 -7.90625 L 3.296875 -11.59375 L 4.703125 -12.1875 Z M 8.3125 -3.4375 "/></g></g></g><g fill="rgb(32.548523%, 24.308777%, 52.159119%)" fill-opacity="1"><g transform="translate(153.404827, 86.996194)"><g><path d="M -0.625 -4.734375 C -0.863281 -5.566406 -0.875 -6.394531 -0.65625 -7.21875 C -0.445312 -8.050781 -0.0507812 -8.78125 0.53125 -9.40625 C 1.125 -10.039062 1.84375 -10.476562 2.6875 -10.71875 C 3.519531 -10.957031 4.351562 -10.96875 5.1875 -10.75 C 6.019531 -10.53125 6.753906 -10.125 7.390625 -9.53125 C 8.023438 -8.9375 8.457031 -8.226562 8.6875 -7.40625 C 8.9375 -6.5625 8.953125 -5.726562 8.734375 -4.90625 C 8.515625 -4.082031 8.101562 -3.351562 7.5 -2.71875 C 6.90625 -2.09375 6.191406 -1.660156 5.359375 -1.421875 C 4.515625 -1.179688 3.675781 -1.164062 2.84375 -1.375 C 2.019531 -1.59375 1.296875 -1.992188 0.671875 -2.578125 C 0.0546875 -3.171875 -0.375 -3.890625 -0.625 -4.734375 Z M 0.875 -5.15625 C 1.050781 -4.5625 1.347656 -4.0625 1.765625 -3.65625 C 2.191406 -3.25 2.691406 -2.972656 3.265625 -2.828125 C 3.835938 -2.679688 4.414062 -2.691406 5 -2.859375 C 5.570312 -3.023438 6.050781 -3.316406 6.4375 -3.734375 C 6.832031 -4.148438 7.097656 -4.644531 7.234375 -5.21875 C 7.378906 -5.800781 7.363281 -6.390625 7.1875 -6.984375 C 7.019531 -7.578125 6.71875 -8.082031 6.28125 -8.5 C 5.851562 -8.914062 5.359375 -9.195312 4.796875 -9.34375 C 4.234375 -9.5 3.660156 -9.492188 3.078125 -9.328125 C 2.492188 -9.160156 2.003906 -8.863281 1.609375 -8.4375 C 1.210938 -8.007812 0.945312 -7.503906 0.8125 -6.921875 C 0.6875 -6.335938 0.707031 -5.75 0.875 -5.15625 Z M 0.875 -5.15625 "/></g></g></g><g fill="rgb(32.548523%, 24.308777%, 52.159119%)" fill-opacity="1"><g transform="translate(164.786716, 83.728486)"><g><path d="M 9.15625 -11.40625 L 10.71875 -1.734375 L 9.21875 -1.5 L 8.34375 -6.890625 L 5.828125 -1.71875 L 5.796875 -1.703125 L 1.890625 -5.625 L 2.734375 -0.4375 L 1.28125 -0.203125 L -0.28125 -9.875 L -0.265625 -9.875 L 5.453125 -4.046875 L 9.125 -11.40625 Z M 9.15625 -11.40625 "/></g></g></g><g fill="rgb(32.548523%, 24.308777%, 52.159119%)" fill-opacity="1"><g transform="translate(177.545484, 81.798162)"><g><path d="M 7.0625 -9.859375 L 7.140625 -8.40625 L 2.40625 -8.15625 L 2.53125 -5.640625 L 6.75 -5.859375 L 6.828125 -4.40625 L 2.609375 -4.1875 L 2.75 -1.609375 L 7.671875 -1.859375 L 7.75 -0.40625 L 1.296875 -0.0625 L 0.796875 -9.515625 Z M 7.0625 -9.859375 "/></g></g></g><g fill="rgb(32.548523%, 24.308777%, 52.159119%)" fill-opacity="1"><g transform="translate(191.964546, 81.461104)"><g><path d="M 6.875 -7 C 6.09375 -7.488281 5.382812 -7.757812 4.75 -7.8125 C 4.28125 -7.84375 3.898438 -7.765625 3.609375 -7.578125 C 3.328125 -7.398438 3.171875 -7.128906 3.140625 -6.765625 C 3.109375 -6.421875 3.25 -6.113281 3.5625 -5.84375 C 3.882812 -5.582031 4.347656 -5.304688 4.953125 -5.015625 C 5.398438 -4.816406 5.785156 -4.597656 6.109375 -4.359375 C 6.429688 -4.117188 6.679688 -3.804688 6.859375 -3.421875 C 7.046875 -3.046875 7.117188 -2.578125 7.078125 -2.015625 C 7.035156 -1.523438 6.867188 -1.085938 6.578125 -0.703125 C 6.296875 -0.316406 5.90625 -0.0195312 5.40625 0.1875 C 4.90625 0.394531 4.332031 0.46875 3.6875 0.40625 C 3.113281 0.363281 2.5625 0.226562 2.03125 0 C 1.5 -0.21875 1.03125 -0.5 0.625 -0.84375 L 1.390625 -1.984375 C 1.691406 -1.710938 2.050781 -1.476562 2.46875 -1.28125 C 2.882812 -1.082031 3.28125 -0.96875 3.65625 -0.9375 C 4.113281 -0.90625 4.523438 -0.984375 4.890625 -1.171875 C 5.253906 -1.359375 5.457031 -1.679688 5.5 -2.140625 C 5.519531 -2.503906 5.394531 -2.816406 5.125 -3.078125 C 4.863281 -3.347656 4.484375 -3.601562 3.984375 -3.84375 C 3.453125 -4.082031 3.019531 -4.316406 2.6875 -4.546875 C 2.351562 -4.773438 2.070312 -5.070312 1.84375 -5.4375 C 1.625 -5.8125 1.535156 -6.265625 1.578125 -6.796875 C 1.640625 -7.554688 1.953125 -8.148438 2.515625 -8.578125 C 3.078125 -9.003906 3.785156 -9.203125 4.640625 -9.171875 C 5.265625 -9.117188 5.804688 -9 6.265625 -8.8125 C 6.734375 -8.632812 7.160156 -8.398438 7.546875 -8.109375 Z M 6.875 -7 "/></g></g></g><g fill="rgb(32.548523%, 24.308777%, 52.159119%)" fill-opacity="1"><g transform="translate(200.320486, 82.180217)"><g><path d="M 8.390625 -8.21875 L 8.15625 -6.78125 L 5.75 -7.171875 L 4.453125 0.734375 L 2.953125 0.484375 L 4.25 -7.421875 L 1.90625 -7.796875 L 2.140625 -9.234375 Z M 8.390625 -8.21875 "/></g></g></g><g fill="rgb(32.548523%, 24.308777%, 52.159119%)" fill-opacity="1"><g transform="translate(208.591618, 83.544282)"><g><path d="M 6.515625 -0.625 L 3.1875 -1.484375 L 1.75 0.453125 L 0.296875 0.078125 L 6.8125 -8.421875 L 6.90625 -8.40625 L 8.5 2.1875 L 6.8125 1.75 Z M 6.359375 -2 L 5.953125 -5.203125 L 4.015625 -2.59375 Z M 6.359375 -2 "/></g></g></g><g fill="rgb(32.548523%, 24.308777%, 52.159119%)" fill-opacity="1"><g transform="translate(218.141572, 86.039143)"><g><path d="M 11.5625 -5.890625 L 6.03125 -1.0625 L 4.984375 1.8125 L 3.5625 1.296875 L 4.609375 -1.578125 L 3.515625 -8.8125 L 5.265625 -8.171875 L 5.96875 -2.9375 L 9.8125 -6.515625 Z M 11.5625 -5.890625 "/></g></g></g><g fill="rgb(32.548523%, 24.308777%, 52.159119%)" fill-opacity="1"><g transform="translate(227.493368, 89.558512)"><g/></g></g><g fill="rgb(32.548523%, 24.308777%, 52.159119%)" fill-opacity="1"><g transform="translate(120.627928, 282.12223)"><g><path d="M 11.015625 -4.078125 L 10.21875 -2.859375 L 8.171875 -4.203125 L 3.765625 2.484375 L 2.5 1.65625 L 6.90625 -5.03125 L 4.921875 -6.34375 L 5.71875 -7.5625 Z M 11.015625 -4.078125 "/></g></g></g><g fill="rgb(32.548523%, 24.308777%, 52.159119%)" fill-opacity="1"><g transform="translate(128.027189, 286.95902)"><g><path d="M 5.671875 3.109375 L 5.390625 -0.78125 L 5.25 -0.859375 L 4.0625 -1.515625 L 2.484375 1.359375 L 1.140625 0.625 L 5.6875 -7.671875 L 8.03125 -6.390625 C 8.945312 -5.878906 9.554688 -5.234375 9.859375 -4.453125 C 10.171875 -3.679688 10.09375 -2.875 9.625 -2.03125 C 9.351562 -1.519531 8.988281 -1.109375 8.53125 -0.796875 C 8.070312 -0.484375 7.539062 -0.335938 6.9375 -0.359375 L 7.21875 3.953125 Z M 4.765625 -2.8125 L 5.9375 -2.171875 C 6.46875 -1.878906 6.9375 -1.8125 7.34375 -1.96875 C 7.75 -2.125 8.050781 -2.382812 8.25 -2.75 C 8.363281 -2.957031 8.429688 -3.191406 8.453125 -3.453125 C 8.484375 -3.722656 8.429688 -4 8.296875 -4.28125 C 8.160156 -4.5625 7.910156 -4.800781 7.546875 -5 L 6.328125 -5.671875 Z M 4.765625 -2.8125 "/></g></g></g><g fill="rgb(32.548523%, 24.308777%, 52.159119%)" fill-opacity="1"><g transform="translate(136.810913, 291.717152)"><g><path d="M 6.53125 0.4375 L 3.375 -0.9375 L 1.65625 0.734375 L 0.28125 0.125 L 8.078125 -7.21875 L 8.15625 -7.1875 L 8.046875 3.53125 L 6.4375 2.828125 Z M 6.59375 -0.953125 L 6.71875 -4.171875 L 4.375 -1.90625 Z M 6.59375 -0.953125 "/></g></g></g><g fill="rgb(32.548523%, 24.308777%, 52.159119%)" fill-opacity="1"><g transform="translate(146.33283, 295.838794)"><g><path d="M 11.484375 -6.140625 L 4.328125 1.921875 L 3.453125 -8.828125 L 5.15625 -8.265625 L 5.5625 -1.5625 L 9.796875 -6.71875 Z M 11.484375 -6.140625 "/></g></g></g><g fill="rgb(32.548523%, 24.308777%, 52.159119%)" fill-opacity="1"><g transform="translate(156.523196, 299.163088)"><g><path d="M 9.5625 -7.46875 L 9.234375 -6.046875 L 4.609375 -7.140625 L 4.015625 -4.671875 L 8.140625 -3.6875 L 7.8125 -2.28125 L 3.6875 -3.265625 L 3.09375 -0.75 L 7.890625 0.390625 L 7.546875 1.796875 L 1.265625 0.296875 L 3.453125 -8.921875 Z M 9.5625 -7.46875 "/></g></g></g><g fill="rgb(32.548523%, 24.308777%, 52.159119%)" fill-opacity="1"><g transform="translate(166.08971, 301.378533)"><g><path d="M 4.21875 -8.9375 L 3.015625 -1.015625 L 7.625 -0.3125 L 7.40625 1.125 L 1.28125 0.1875 L 2.703125 -9.171875 Z M 4.21875 -8.9375 "/></g></g></g><g fill="rgb(32.548523%, 24.308777%, 52.159119%)" fill-opacity="1"><g transform="translate(180.743124, 303.167439)"><g><path d="M 7.203125 -9.296875 L 7.15625 -7.84375 L 4.71875 -7.90625 L 4.515625 0.109375 L 3 0.078125 L 3.203125 -7.9375 L 0.828125 -8 L 0.875 -9.453125 Z M 7.203125 -9.296875 "/></g></g></g><g fill="rgb(32.548523%, 24.308777%, 52.159119%)" fill-opacity="1"><g transform="translate(189.613176, 303.418171)"><g><path d="M 0.40625 -4.75 C 0.351562 -5.613281 0.515625 -6.429688 0.890625 -7.203125 C 1.273438 -7.972656 1.820312 -8.601562 2.53125 -9.09375 C 3.238281 -9.582031 4.03125 -9.851562 4.90625 -9.90625 C 5.769531 -9.96875 6.585938 -9.800781 7.359375 -9.40625 C 8.128906 -9.007812 8.757812 -8.453125 9.25 -7.734375 C 9.75 -7.023438 10.023438 -6.242188 10.078125 -5.390625 C 10.140625 -4.523438 9.972656 -3.707031 9.578125 -2.9375 C 9.191406 -2.175781 8.632812 -1.550781 7.90625 -1.0625 C 7.1875 -0.582031 6.394531 -0.3125 5.53125 -0.25 C 4.65625 -0.195312 3.835938 -0.363281 3.078125 -0.75 C 2.316406 -1.132812 1.695312 -1.675781 1.21875 -2.375 C 0.738281 -3.082031 0.46875 -3.875 0.40625 -4.75 Z M 1.96875 -4.859375 C 2.007812 -4.242188 2.191406 -3.691406 2.515625 -3.203125 C 2.835938 -2.710938 3.257812 -2.332031 3.78125 -2.0625 C 4.3125 -1.800781 4.878906 -1.691406 5.484375 -1.734375 C 6.078125 -1.765625 6.613281 -1.945312 7.09375 -2.28125 C 7.570312 -2.613281 7.9375 -3.039062 8.1875 -3.5625 C 8.445312 -4.09375 8.554688 -4.664062 8.515625 -5.28125 C 8.472656 -5.894531 8.285156 -6.453125 7.953125 -6.953125 C 7.628906 -7.460938 7.207031 -7.847656 6.6875 -8.109375 C 6.164062 -8.378906 5.601562 -8.492188 5 -8.453125 C 4.394531 -8.421875 3.851562 -8.234375 3.375 -7.890625 C 2.90625 -7.554688 2.539062 -7.117188 2.28125 -6.578125 C 2.03125 -6.046875 1.925781 -5.472656 1.96875 -4.859375 Z M 1.96875 -4.859375 "/></g></g></g><g fill="rgb(32.548523%, 24.308777%, 52.159119%)" fill-opacity="1"><g transform="translate(207.288217, 301.721339)"><g><path d="M 8.796875 -1.921875 L 7.296875 -1.59375 L 6.4375 -5.53125 L 1.90625 -4.546875 L 2.765625 -0.609375 L 1.265625 -0.28125 L -0.765625 -9.53125 L 0.734375 -9.859375 L 1.59375 -5.953125 L 6.125 -6.9375 L 5.265625 -10.84375 L 6.765625 -11.171875 Z M 8.796875 -1.921875 "/></g></g></g><g fill="rgb(32.548523%, 24.308777%, 52.159119%)" fill-opacity="1"><g transform="translate(218.630909, 299.188162)"><g><path d="M -0.796875 -4.703125 C -1.066406 -5.523438 -1.113281 -6.351562 -0.9375 -7.1875 C -0.757812 -8.03125 -0.390625 -8.773438 0.171875 -9.421875 C 0.734375 -10.078125 1.429688 -10.539062 2.265625 -10.8125 C 3.085938 -11.09375 3.921875 -11.132812 4.765625 -10.9375 C 5.617188 -10.75 6.367188 -10.375 7.015625 -9.8125 C 7.660156 -9.25 8.117188 -8.5625 8.390625 -7.75 C 8.671875 -6.914062 8.71875 -6.082031 8.53125 -5.25 C 8.351562 -4.414062 7.972656 -3.671875 7.390625 -3.015625 C 6.816406 -2.367188 6.117188 -1.90625 5.296875 -1.625 C 4.460938 -1.351562 3.625 -1.304688 2.78125 -1.484375 C 1.945312 -1.671875 1.210938 -2.039062 0.578125 -2.59375 C -0.0546875 -3.15625 -0.515625 -3.859375 -0.796875 -4.703125 Z M 0.6875 -5.203125 C 0.882812 -4.617188 1.195312 -4.128906 1.625 -3.734375 C 2.0625 -3.335938 2.570312 -3.078125 3.15625 -2.953125 C 3.738281 -2.828125 4.316406 -2.859375 4.890625 -3.046875 C 5.453125 -3.234375 5.921875 -3.546875 6.296875 -3.984375 C 6.671875 -4.421875 6.914062 -4.929688 7.03125 -5.515625 C 7.144531 -6.097656 7.101562 -6.679688 6.90625 -7.265625 C 6.71875 -7.847656 6.398438 -8.335938 5.953125 -8.734375 C 5.503906 -9.140625 4.992188 -9.40625 4.421875 -9.53125 C 3.859375 -9.664062 3.289062 -9.632812 2.71875 -9.4375 C 2.144531 -9.25 1.664062 -8.929688 1.28125 -8.484375 C 0.90625 -8.046875 0.664062 -7.535156 0.5625 -6.953125 C 0.457031 -6.367188 0.5 -5.785156 0.6875 -5.203125 Z M 0.6875 -5.203125 "/></g></g></g><g fill="rgb(32.548523%, 24.308777%, 52.159119%)" fill-opacity="1"><g transform="translate(230.45113, 295.227917)"><g><path d="M 5.765625 -13.453125 L 9.859375 -4.546875 L 8.484375 -3.90625 L 6.203125 -8.875 L 5.171875 -3.21875 L 5.140625 -3.21875 L 0.328125 -5.921875 L 2.515625 -1.15625 L 1.171875 -0.546875 L -2.921875 -9.453125 L -2.90625 -9.453125 L 4.171875 -5.359375 L 5.75 -13.4375 Z M 5.765625 -13.453125 "/></g></g></g><g fill="rgb(32.548523%, 24.308777%, 52.159119%)" fill-opacity="1"><g transform="translate(242.617689, 289.455423)"><g><path d="M 1.734375 -12 L 2.46875 -10.75 L -1.625 -8.34375 L -0.34375 -6.15625 L 3.3125 -8.296875 L 4.046875 -7.046875 L 0.390625 -4.90625 L 1.703125 -2.6875 L 5.953125 -5.1875 L 6.6875 -3.9375 L 1.125 -0.65625 L -3.671875 -8.8125 Z M 1.734375 -12 "/></g></g></g><g fill="rgb(32.548523%, 24.308777%, 52.159119%)" fill-opacity="1"><g transform="translate(250.978135, 284.403828)"><g/></g></g><g fill="rgb(32.548523%, 24.308777%, 52.159119%)" fill-opacity="1"><g transform="translate(155.669936, 232.134023)"><g><path d="M 4.183594 -7.0625 L 4.183594 0 L 5.097656 0 L 5.097656 -10.496094 L 4.183594 -10.496094 L 4.183594 -7.871094 L 2.070312 -7.871094 L 2.070312 -10.496094 L 1.15625 -10.496094 L 1.15625 0 L 2.070312 0 L 2.070312 -7.0625 Z M 4.183594 -7.0625 "/></g></g></g><g fill="rgb(32.548523%, 24.308777%, 52.159119%)" fill-opacity="1"><g transform="translate(163.435057, 232.134023)"><g><path d="M 3.285156 0.148438 C 5.128906 0.148438 6.042969 -1.527344 6.042969 -5.277344 C 6.042969 -9.027344 5.128906 -10.703125 3.285156 -10.703125 C 1.453125 -10.703125 0.523438 -9.027344 0.523438 -5.277344 C 0.523438 -1.527344 1.453125 0.148438 3.285156 0.148438 Z M 3.285156 -0.71875 C 1.695312 -0.71875 1.453125 -3.417969 1.453125 -5.277344 C 1.453125 -7.136719 1.695312 -9.835938 3.285156 -9.835938 C 4.871094 -9.835938 5.113281 -7.136719 5.113281 -5.277344 C 5.113281 -3.417969 4.871094 -0.71875 3.285156 -0.71875 Z M 3.285156 -0.71875 "/></g></g></g><g fill="rgb(32.548523%, 24.308777%, 52.159119%)" fill-opacity="1"><g transform="translate(171.499945, 232.134023)"><g><path d="M 7.554688 -10.496094 L 6.613281 -10.496094 L 4.378906 -7.300781 L 2.144531 -10.496094 L 1.15625 -10.496094 L 1.15625 0 L 2.070312 0 L 2.070312 -9.039062 L 4.347656 -5.757812 L 6.640625 -9.054688 L 6.640625 0 L 7.554688 0 Z M 7.554688 -10.496094 "/></g></g></g><g fill="rgb(32.548523%, 24.308777%, 52.159119%)" fill-opacity="1"><g transform="translate(181.723153, 232.134023)"><g><path d="M 1.15625 -10.496094 L 1.15625 0 L 4.378906 0 L 4.378906 -0.882812 L 2.070312 -0.882812 L 2.070312 -7 L 3.492188 -7 L 3.492188 -7.8125 L 2.070312 -7.8125 L 2.070312 -9.625 L 4.378906 -9.625 L 4.378906 -10.496094 Z M 1.15625 -10.496094 "/></g></g></g><g fill="rgb(32.548523%, 24.308777%, 52.159119%)" fill-opacity="1"><g transform="translate(188.049387, 232.134023)"><g/></g></g><g fill="rgb(32.548523%, 24.308777%, 52.159119%)" fill-opacity="1"><g transform="translate(191.797621, 232.134023)"><g><path d="M 3.148438 -6.027344 C 2.355469 -6.820312 1.722656 -7.527344 1.710938 -8.574219 C 1.695312 -9.308594 2.007812 -9.773438 2.5625 -9.773438 C 2.984375 -9.773438 3.195312 -9.582031 3.492188 -8.964844 L 4.363281 -9.324219 C 3.941406 -10.285156 3.417969 -10.703125 2.5625 -10.703125 C 1.574219 -10.703125 0.765625 -9.894531 0.78125 -8.5625 C 0.792969 -7.136719 1.542969 -6.222656 2.546875 -5.246094 C 3.554688 -4.273438 3.957031 -3.65625 3.957031 -2.59375 C 3.957031 -1.964844 3.808594 -0.78125 2.546875 -0.78125 C 1.917969 -0.78125 1.542969 -0.960938 1.035156 -1.664062 L 0.226562 -1.214844 C 0.855469 -0.269531 1.453125 0.148438 2.503906 0.148438 C 3.929688 0.148438 4.886719 -1.003906 4.886719 -2.699219 C 4.886719 -4.167969 4.136719 -5.039062 3.148438 -6.027344 Z M 3.148438 -6.027344 "/></g></g></g><g fill="rgb(32.548523%, 24.308777%, 52.159119%)" fill-opacity="1"><g transform="translate(198.468596, 232.134023)"><g><path d="M 3.074219 -9.625 L 4.949219 -9.625 L 4.949219 -10.496094 L 0.285156 -10.496094 L 0.285156 -9.625 L 2.160156 -9.625 L 2.160156 0 L 3.074219 0 Z M 3.074219 -9.625 "/></g></g></g><g fill="rgb(32.548523%, 24.308777%, 52.159119%)" fill-opacity="1"><g transform="translate(205.199516, 232.134023)"><g><path d="M 4.78125 -1.632812 L 5.113281 0 L 6.027344 0 L 3.792969 -10.496094 L 2.683594 -10.496094 L 0.570312 0 L 1.453125 0 L 2.292969 -4.347656 Z M 4.46875 -3.207031 L 2.503906 -5.351562 L 3.238281 -9.160156 Z M 4.46875 -3.207031 "/></g></g></g><g fill="rgb(32.548523%, 24.308777%, 52.159119%)" fill-opacity="1"><g transform="translate(213.264401, 232.134023)"><g><path d="M 5.695312 -10.496094 L 4.753906 -10.496094 L 3.042969 -7.089844 L 1.335938 -10.496094 L 0.375 -10.496094 L 2.578125 -6.191406 L 2.578125 0 L 3.492188 0 L 3.492188 -6.191406 Z M 5.695312 -10.496094 "/></g></g></g></svg>