<svg width="414" height="307" viewBox="0 0 414 307" fill="none" xmlns="http://www.w3.org/2000/svg">
<g clip-path="url(#clip0_207_301)">
<path d="M263.015 161.125C264.812 161.691 266.73 161.49 268.405 160.56C270.08 159.63 271.396 158.036 272.104 156.08C272.811 154.123 272.861 151.941 272.244 149.946C271.627 147.951 270.385 146.281 268.755 145.254L252.583 124.457L238.904 127.807L258.143 149.167C257.67 150.302 257.422 151.542 257.418 152.797C257.413 154.053 257.651 155.295 258.116 156.435C258.58 157.575 259.26 158.586 260.106 159.396C260.953 160.206 261.945 160.796 263.015 161.125L263.015 161.125Z" fill="#A0616A"/>
<path d="M209.809 86.6694L250.116 144.021L262.403 137.627L215.026 54.0193L209.809 86.6694Z" fill="#3F3D56"/>
<path d="M114.814 306.886C117.255 306.886 119.235 304.642 119.235 301.875C119.235 299.107 117.255 296.864 114.814 296.864C112.372 296.864 110.393 299.107 110.393 301.875C110.393 304.642 112.372 306.886 114.814 306.886Z" fill="#3F3D56"/>
<path d="M118.028 200.967C118.028 200.967 128.478 164.977 129.282 162.471C130.085 159.965 138.525 164.066 140.736 164.749C142.946 165.432 142.343 167.938 142.343 167.938L131.09 204.839L134.506 206.661L144.956 169.532C150.985 162.471 146.564 162.015 146.564 162.015C146.564 162.015 133.703 157.004 128.88 156.549C124.057 156.093 125.865 162.699 125.865 162.699L114.21 197.778L118.028 200.967Z" fill="#3F3D56"/>
<path d="M143.148 209.622L143.146 209.62C141.663 207.21 139.557 205.38 137.119 204.383C137.033 204.347 136.932 204.306 136.818 204.26C131.281 202.067 92.7083 190.261 92.7083 190.261C92.7083 190.261 85.0721 187.072 81.6559 195.728C78.2397 204.383 57.9434 276.135 57.9434 276.135C57.9434 276.135 97.6397 300.198 109.213 302.818C109.927 303.013 110.664 303.079 111.397 303.014C113.364 302.705 115.3 302.181 117.179 301.449C119.256 300.682 121.232 299.599 123.052 298.23L145.559 221.923C145.559 221.923 148.775 213.495 143.148 209.622Z" fill="#533E85"/>
<path d="M143.148 209.622L143.146 209.62C141.663 207.21 139.558 205.38 137.119 204.383C137.033 204.347 136.932 204.306 136.818 204.26C138.639 207.877 139.33 213.495 139.33 213.495C139.33 213.495 117.225 287.98 115.215 295.041C113.684 300.424 110.595 302.253 109.213 302.818C109.927 303.013 110.665 303.079 111.397 303.014C113.364 302.705 115.301 302.181 117.179 301.449C117.728 300.735 118.215 299.962 118.632 299.141C118.632 299.141 141.138 222.834 143.148 219.189C145.158 215.545 143.148 209.622 143.148 209.622Z" fill="#3F3D56"/>
<path d="M101.249 307C103.691 307 105.67 304.756 105.67 301.989C105.67 299.221 103.691 296.978 101.249 296.978C98.8075 296.978 96.8281 299.221 96.8281 301.989C96.8281 304.756 98.8075 307 101.249 307Z" fill="#3F3D56"/>
<path d="M58.3448 285.93C60.7865 285.93 62.7658 283.686 62.7658 280.919C62.7658 278.151 60.7865 275.907 58.3448 275.907C55.9032 275.907 53.9238 278.151 53.9238 280.919C53.9238 283.686 55.9032 285.93 58.3448 285.93Z" fill="#3F3D56"/>
<path d="M136.271 165.522C134.493 166.16 132.57 166.036 130.867 165.175C129.163 164.313 127.798 162.773 127.029 160.847C126.261 158.92 126.142 156.741 126.696 154.723C127.251 152.704 128.439 150.985 130.036 149.893L145.544 128.456L159.319 131.252L140.764 153.375C141.272 154.49 141.559 155.719 141.603 156.974C141.647 158.229 141.448 159.479 141.02 160.637C140.591 161.795 139.944 162.833 139.124 163.677C138.303 164.521 137.33 165.15 136.271 165.522L136.271 165.522Z" fill="#A0616A"/>
<path d="M241.971 259.846L251.577 259.676L250.422 296.789H241.972L241.971 259.846Z" fill="#A0616A"/>
<path d="M239.816 293.663L256.457 293.662H256.458C259.27 293.662 261.967 294.929 263.956 297.183C265.945 299.437 267.062 302.494 267.062 305.682V306.073L239.817 306.074L239.816 293.663Z" fill="#2F2E41"/>
<path d="M178.366 250.003L188.86 257.64L167.868 286.265L160.758 281.091L178.366 250.003Z" fill="#A0616A"/>
<path d="M160.435 277.139L174.438 287.33L174.439 287.33C176.805 289.053 178.471 291.77 179.07 294.885C179.669 298 179.152 301.257 177.633 303.939L177.447 304.268L154.52 287.583L160.435 277.139Z" fill="#2F2E41"/>
<path d="M174.627 136.673C174.627 136.673 197.943 48.8917 205.437 47.7054C212.93 46.5192 225.003 70.2292 225.003 70.2292C240.657 92.868 256.798 166.2 256.798 166.2C256.798 166.2 229.89 168.109 210.22 179.971C190.55 191.834 167.337 179.371 167.337 179.371L174.627 136.673Z" fill="#3F3D56"/>
<path opacity="0.1" d="M174.627 136.674C174.627 136.674 197.943 48.8917 205.437 47.7055C212.93 46.5193 221.937 70.4699 221.937 70.4699C229.737 107.014 256.798 166.2 256.798 166.2C256.798 166.2 229.89 168.109 210.22 179.971C190.55 191.834 167.337 179.371 167.337 179.371L174.627 136.674Z" fill="black"/>
<path d="M193.757 110.41V154.519L189.177 218.416L166.297 266.749L177.217 275.59L208.417 229.615L220.757 183.964L240.137 285.021L254.697 283.842L244.585 143.729L225.396 104.29L193.757 110.41Z" fill="#2F2E41"/>
<path d="M217.265 67.7456C224.545 75.9976 217.785 84.839 217.785 84.839L226.105 106.058L193.345 116.079L181.896 58.0918L189.696 48.661C205.296 48.0715 205.305 47.7051 205.305 47.7051C208.038 50.737 217.265 67.7456 217.265 67.7456Z" fill="#CCCCCC"/>
<path d="M180.397 52.2355C177.689 54.4932 175.789 57.7816 175.046 61.498C174.303 65.2144 174.767 69.1097 176.352 72.47C180.106 80.591 184.143 93.1707 182.061 106.981C178.294 131.974 166.219 150.962 159.492 157.061C157.15 159.184 157.069 162.275 157.412 164.495C158.373 170.696 163.677 177.733 167.346 179.144C167.593 179.236 167.851 179.283 168.112 179.28C174.072 179.282 188.733 157.765 205.58 115.734C216.073 89.5568 208.458 68.5679 200.222 55.5697C199.141 53.869 197.773 52.4283 196.197 51.3311C194.621 50.234 192.869 49.5021 191.042 49.1779C189.215 48.8538 187.349 48.9437 185.553 49.4426C183.757 49.9415 182.066 50.8395 180.578 52.0844L180.397 52.2355Z" fill="#3F3D56"/>
<path d="M195.937 77.5426L148.626 147.908L136.146 142.014L180.866 56.5466L195.937 77.5426Z" fill="#3F3D56"/>
<path d="M209.97 40.0656H177.429C176.76 40.0647 176.118 39.7629 175.645 39.2264C175.171 38.6899 174.905 37.9625 174.904 37.2037V21.3047C174.903 18.506 175.388 15.7344 176.332 13.1483C177.276 10.5622 178.66 8.21226 180.406 6.23274C182.151 4.25323 184.224 2.68293 186.505 1.61156C188.786 0.540201 191.231 -0.0112305 193.7 -0.0112305C196.169 -0.0112305 198.614 0.540201 200.895 1.61156C203.176 2.68293 205.248 4.25323 206.993 6.23274C208.739 8.21226 210.123 10.5622 211.067 13.1483C212.011 15.7344 212.496 18.506 212.495 21.3047V37.2037C212.494 37.9625 212.228 38.6899 211.755 39.2264C211.281 39.7629 210.639 40.0647 209.97 40.0656V40.0656Z" fill="#2F2E41"/>
<path d="M209.654 31.5678C213.304 23.9983 210.85 14.5077 204.172 10.3698C197.494 6.23196 189.122 9.01385 185.471 16.5833C181.821 24.1528 184.275 33.6434 190.953 37.7813C197.631 41.9191 206.003 39.1373 209.654 31.5678Z" fill="#A0616A"/>
<path d="M216.942 22.8946H197.043L196.839 19.6564L195.819 22.8946H192.755L192.351 16.4766L190.329 22.8946H184.4V22.5766C184.405 18.1085 185.973 13.8248 188.76 10.6653C191.547 7.50588 195.326 5.72868 199.268 5.72363H202.074C206.015 5.72867 209.795 7.50587 212.582 10.6653C215.369 13.8248 216.937 18.1085 216.942 22.5766V22.8946Z" fill="#2F2E41"/>
<path d="M196.881 43.0334C196.732 43.0333 196.582 43.0183 196.435 42.9887L181.864 40.0747V12.7793H197.903L197.506 13.3041C191.981 20.6077 196.144 32.4506 199.117 38.8599C199.336 39.3294 199.433 39.8594 199.398 40.389C199.363 40.9186 199.197 41.4262 198.919 41.8534C198.686 42.2188 198.38 42.5162 198.025 42.7213C197.671 42.9264 197.279 43.0334 196.881 43.0334Z" fill="#2F2E41"/>
</g>
<defs>
<clipPath id="clip0_207_301">
<rect width="442" height="307" fill="white" transform="translate(-19)"/>
</clipPath>
</defs>
</svg>
