<svg width="371" height="340" viewBox="0 0 371 340" fill="none" xmlns="http://www.w3.org/2000/svg">
<path d="M225.115 97.155C218.695 97.155 212.42 95.4826 207.082 92.3493C201.744 89.2159 197.584 84.7623 195.127 79.5517C192.67 74.3411 192.028 68.6074 193.28 63.0758C194.532 57.5442 197.624 52.4631 202.163 48.4751C206.702 44.487 212.486 41.7711 218.782 40.6708C225.079 39.5704 231.605 40.1351 237.536 42.2934C243.467 44.4518 248.536 48.1067 252.103 52.7962C255.67 57.4856 257.573 62.9989 257.573 68.6389C257.564 76.1991 254.141 83.4473 248.056 88.7932C241.971 94.1392 233.721 97.1463 225.115 97.155Z" fill="#533E85"/>
<path d="M126.586 204.976C126.53 203.935 126.215 202.918 125.663 201.996C125.111 201.073 124.335 200.269 123.391 199.638C122.446 199.008 121.356 198.567 120.197 198.347C119.038 198.127 117.838 198.132 116.681 198.364L105.952 185.08L95.1738 188.839L110.625 207.411C111.196 209.092 112.449 210.531 114.147 211.454C115.845 212.378 117.869 212.722 119.837 212.422C121.804 212.122 123.578 211.198 124.822 209.826C126.066 208.453 126.694 206.728 126.586 204.976H126.586Z" fill="#A0616A"/>
<path d="M105.677 203.992L73.2129 166.992L85.3767 133.406C86.2681 124.962 92.2825 122.605 92.5384 122.508L92.9287 122.361L103.514 147.16L95.7418 165.367L114.817 193.552L105.677 203.992Z" fill="#3F3D56"/>
<path d="M218.417 89.9339C217.24 90.0636 216.11 90.4183 215.106 90.9732C214.102 91.5281 213.249 92.2696 212.606 93.1455C211.964 94.0214 211.548 95.0104 211.388 96.0429C211.227 97.0753 211.327 98.1261 211.679 99.1212L197.434 109.546L202.533 118.696L222.414 103.726C224.278 103.096 225.814 101.887 226.731 100.329C227.647 98.7702 227.882 96.9703 227.389 95.2702C226.896 93.5701 225.711 92.0879 224.057 91.1044C222.403 90.1209 220.397 89.7044 218.417 89.9339Z" fill="#FFC9B0"/>
<path d="M218.917 108.325L179.438 139.621L140.383 131.564C130.732 131.436 127.591 126.35 127.462 126.133L127.265 125.803L154.589 114.614L175.852 120.014L206.363 101.126L218.917 108.325Z" fill="#3F3D56"/>
<path d="M150.533 330.808L161.141 330.807L166.186 294.863L150.531 294.864L150.533 330.808Z" fill="#FFC9B0"/>
<path d="M181.598 339.46L148.261 339.461L148.26 328.145L172.244 328.144C174.725 328.144 177.104 329.01 178.858 330.551C180.612 332.092 181.597 334.181 181.597 336.361L181.598 339.46L181.598 339.46Z" fill="#2F2E41"/>
<path d="M108.138 330.808L118.745 330.807L123.792 294.863L108.137 294.864L108.138 330.808Z" fill="#FFC9B0"/>
<path d="M139.202 339.46L105.865 339.461L105.865 328.145L129.849 328.144C131.077 328.144 132.293 328.357 133.428 328.77C134.563 329.183 135.594 329.788 136.462 330.551C137.331 331.314 138.02 332.219 138.49 333.216C138.96 334.213 139.202 335.282 139.202 336.361L139.202 339.46Z" fill="#2F2E41"/>
<path d="M104.365 199.607L105.23 252.815L106.096 322.746L125.13 321.226L134.648 224.691L146.761 321.226H166.411L168.391 223.931L161.469 202.648L104.365 199.607Z" fill="#2F2E41"/>
<path d="M141.62 206.753C120.91 206.754 101.846 198.519 101.588 198.406L101.375 198.312L99.6365 161.668C99.1325 160.373 89.2083 134.822 87.5275 126.7C85.8245 118.472 110.506 111.251 113.503 110.406L114.183 103.787L141.841 101.168L145.347 109.638L155.27 112.907C156.395 113.278 157.326 113.998 157.886 114.932C158.447 115.865 158.598 116.947 158.312 117.972L152.797 137.675L166.266 202.862L163.366 202.973C156.415 205.73 148.914 206.752 141.62 206.753Z" fill="#3F3D56"/>
<path d="M138.647 94.8321C148.298 90.1974 151.844 79.5672 146.569 71.0889C141.293 62.6106 129.193 59.4947 119.543 64.1294C109.893 68.7641 106.346 79.3943 111.621 87.8726C116.897 96.3509 128.997 99.4667 138.647 94.8321Z" fill="#FFC9B0"/>
<path d="M112.966 96.4176C116.761 99.9692 123.809 98.0626 124.304 93.2106C124.343 92.8339 124.34 92.4548 124.296 92.0786C124.04 89.9293 122.627 87.9781 122.965 85.7087C123.042 85.144 123.282 84.6057 123.661 84.145C126.686 80.5872 133.785 85.7364 136.639 82.5155C138.389 80.5406 136.332 77.4312 137.675 75.2238C139.447 72.3105 144.698 73.7477 147.99 72.1522C151.653 70.377 151.434 65.4392 149.023 62.4357C146.082 58.7728 140.926 56.8184 135.834 56.5367C130.742 56.255 125.685 57.4643 120.931 59.0919C115.53 60.9412 110.174 63.4969 106.85 67.6694C102.808 72.7437 102.419 79.5655 104.44 85.4988C105.67 89.1082 109.867 93.5173 112.966 96.4176Z" fill="#2F2E41"/>
<path d="M223.241 79.4095C222.656 79.4101 222.092 79.2155 221.663 78.865L210.961 70.1314C210.511 69.7636 210.246 69.2539 210.223 68.7145C210.201 68.175 210.423 67.6498 210.841 67.2542C211.26 66.8587 211.839 66.6251 212.453 66.6049C213.067 66.5848 213.665 66.7796 214.116 67.1465L223.182 74.5444L241.118 58.7871C241.333 58.5968 241.588 58.4456 241.87 58.3423C242.152 58.239 242.454 58.1856 242.759 58.1851C243.064 58.1846 243.367 58.237 243.649 58.3394C243.931 58.4418 244.187 58.5922 244.403 58.7818C244.619 58.9714 244.79 59.1966 244.906 59.4445C245.023 59.6923 245.082 59.9579 245.082 60.2261C245.081 60.4942 245.02 60.7596 244.903 61.0071C244.785 61.2545 244.613 61.4791 244.396 61.6679L224.881 78.813C224.666 79.0024 224.41 79.1525 224.129 79.2549C223.847 79.3572 223.545 79.4098 223.241 79.4095Z" fill="white"/>
</svg>
