<svg width="414" height="340" viewBox="0 0 414 340" fill="none" xmlns="http://www.w3.org/2000/svg">
<g clip-path="url(#clip0_207_71)">
<path d="M6.87393 223.992C9.52284 230.437 15.1448 233.203 15.1448 233.203C15.1448 233.203 16.472 225.521 13.8231 219.077C11.1742 212.632 5.55222 209.866 5.55222 209.866C5.55222 209.866 4.22501 217.548 6.87393 223.992Z" fill="#533E85"/>
<path d="M8.69431 221.872C13.4767 225.646 15.3185 233.144 15.3185 233.144C15.3185 233.144 9.40661 234.521 4.62422 230.747C-0.158166 226.972 -2 219.475 -2 219.475C-2 219.475 3.91192 218.097 8.69431 221.872Z" fill="#533E85"/>
<path d="M12.8036 181.485L9.875 175.081L37.2092 144.346H107.498V153.31L82.1158 189.168L52.829 196.853L12.8036 181.485Z" fill="#3F3D56"/>
<path d="M119.597 162.383V142.346H110.395V148.664L107.498 144.346L84.0681 175.081L80.1631 180.204L75.2822 205.817L84.0681 233.991H128.975V176.362L119.597 162.383Z" fill="#CCCCCC"/>
<path d="M84.0684 175.081H9.875V233.991H84.0684V175.081Z" fill="#F2F2F2"/>
<path d="M73.8179 193.651H58.1982V211.58H73.8179V193.651Z" fill="#3F3D56"/>
<path d="M51.8527 193.01H38.1855V233.991H51.8527V193.01Z" fill="#CCCCCC"/>
<path d="M22.5662 199.414V193.011H16.709V199.414H22.078H22.5662Z" fill="#3F3D56"/>
<path d="M22.078 204.536H16.709V210.94H22.5662V204.536H22.078Z" fill="#3F3D56"/>
<path d="M32.3281 193.01H26.4707V199.414H32.3281V193.01Z" fill="#3F3D56"/>
<path d="M32.3281 204.536H26.4707V210.94H32.3281V204.536Z" fill="#3F3D56"/>
<path d="M105.058 200.054V193.651H99.2002V200.054H104.57H105.058Z" fill="#3F3D56"/>
<path d="M104.57 205.177H99.2002V211.58H105.058V205.177H104.57Z" fill="#3F3D56"/>
<path d="M114.82 193.651H108.963V200.054H114.82V193.651Z" fill="#3F3D56"/>
<path d="M114.82 205.177H108.963V211.58H114.82V205.177Z" fill="#3F3D56"/>
<path d="M153.673 181.45L150.744 175.047L178.079 144.311H248.367V153.275L222.985 189.134L193.698 196.817L153.673 181.45Z" fill="#3F3D56"/>
<path d="M260.467 162.348V142.311H251.264V148.629L248.367 144.311L224.938 175.047L221.033 180.169L216.151 205.782L224.938 233.956H269.844V176.327L260.467 162.348Z" fill="#CCCCCC"/>
<path d="M224.938 175.046H150.744V233.956H224.938V175.046Z" fill="#F2F2F2"/>
<path d="M214.687 193.616H199.067V211.545H214.687V193.616Z" fill="#3F3D56"/>
<path d="M192.722 192.975H179.055V233.956H192.722V192.975Z" fill="#CCCCCC"/>
<path d="M163.436 199.378V192.975H157.578V199.378H162.948H163.436Z" fill="#3F3D56"/>
<path d="M162.948 204.501H157.578V210.904H163.436V204.501H162.948Z" fill="#3F3D56"/>
<path d="M173.198 192.975H167.341V199.379H173.198V192.975Z" fill="#3F3D56"/>
<path d="M173.198 204.501H167.341V210.904H173.198V204.501Z" fill="#3F3D56"/>
<path d="M245.927 200.019V193.616H240.069V200.019H245.438H245.927Z" fill="#3F3D56"/>
<path d="M245.438 205.141H240.069V211.545H245.927V205.141H245.438Z" fill="#3F3D56"/>
<path d="M255.689 193.616H249.832V200.019H255.689V193.616Z" fill="#3F3D56"/>
<path d="M255.689 205.142H249.832V211.545H255.689V205.142Z" fill="#3F3D56"/>
<path d="M290.314 181.45L287.386 175.047L314.72 144.311H385.009V153.275L359.627 189.134L330.34 196.817L290.314 181.45Z" fill="#3F3D56"/>
<path d="M397.108 162.348V142.311H387.905V148.629L385.008 144.311L361.579 175.047L357.674 180.169L352.793 205.782L361.579 233.956H406.485V176.327L397.108 162.348Z" fill="#CCCCCC"/>
<path d="M361.58 175.046H287.387V233.956H361.58V175.046Z" fill="#F2F2F2"/>
<path d="M351.33 193.616H335.71V211.545H351.33V193.616Z" fill="#3F3D56"/>
<path d="M329.364 192.975H315.697V233.956H329.364V192.975Z" fill="#CCCCCC"/>
<path d="M300.077 199.378V192.975H294.22V199.378H299.589H300.077Z" fill="#3F3D56"/>
<path d="M299.589 204.501H294.22V210.904H300.077V204.501H299.589Z" fill="#3F3D56"/>
<path d="M309.84 192.975H303.982V199.379H309.84V192.975Z" fill="#3F3D56"/>
<path d="M309.84 204.501H303.982V210.904H309.84V204.501Z" fill="#3F3D56"/>
<path d="M382.568 200.019V193.616H376.711V200.019H382.08H382.568Z" fill="#3F3D56"/>
<path d="M382.08 205.141H376.711V211.545H382.568V205.141H382.08Z" fill="#3F3D56"/>
<path d="M392.331 193.616H386.474V200.019H392.331V193.616Z" fill="#3F3D56"/>
<path d="M392.331 205.142H386.474V211.545H392.331V205.142Z" fill="#3F3D56"/>
<path d="M277.558 195.922H276.823V233.989H277.558V195.922Z" fill="#3F3D56"/>
<path d="M284.338 200.773C284.385 214.084 277.246 224.918 277.246 224.918C277.246 224.918 270.031 214.171 269.985 200.86C269.938 187.549 277.077 176.715 277.077 176.715C277.077 176.715 284.291 187.462 284.338 200.773Z" fill="#533E85"/>
<path d="M143.855 194.958H143.12V233.025H143.855V194.958Z" fill="#3F3D56"/>
<path d="M150.635 199.81C150.682 213.121 143.543 223.955 143.543 223.955C143.543 223.955 136.328 213.208 136.281 199.897C136.235 186.586 143.374 175.751 143.374 175.751C143.374 175.751 150.588 186.499 150.635 199.81Z" fill="#533E85"/>
<path d="M134.305 194.958H133.57V233.025H134.305V194.958Z" fill="#3F3D56"/>
<path d="M141.084 199.81C141.131 213.121 133.992 223.955 133.992 223.955C133.992 223.955 126.777 213.208 126.731 199.897C126.684 186.586 133.823 175.751 133.823 175.751C133.823 175.751 141.037 186.499 141.084 199.81Z" fill="#533E85"/>
<path d="M417 233.028H-0.638672V233.991H417V233.028Z" fill="#3F3D56"/>
<path d="M93.9167 204.193C93.9167 204.193 94.293 204.759 93.6483 205.853C93.0036 206.948 93.5242 209.323 94.749 209.383C95.9738 209.444 96.5677 210.117 96.2724 211.003C95.9772 211.89 95.6223 213.996 96.9562 213.676C98.29 213.355 98.7116 214.052 98.4755 214.587C98.2393 215.123 99.0702 213.523 99.0702 213.523C99.0702 213.523 99.8135 214.975 100.726 213.959C101.638 212.942 102.001 203.724 100.141 203.568C98.2811 203.411 93.9167 204.193 93.9167 204.193Z" fill="#2F2E41"/>
<path d="M103.346 248.029L103.769 251.921H105.677L105.041 247.473L103.346 248.029Z" fill="#FFB8B8"/>
<path d="M105.888 249.558C105.888 249.558 108.431 252.616 107.795 252.894C107.159 253.172 104.828 256.508 104.404 256.786C104.025 257.035 99.954 258.732 100.59 256.786C101.057 255.521 101.793 254.459 102.709 253.728L103.133 250.392L105.888 249.558Z" fill="#F2F2F2"/>
<path opacity="0.1" d="M105.888 249.558C105.888 249.558 108.431 252.616 107.795 252.894C107.159 253.172 104.828 256.508 104.404 256.786C104.025 257.035 99.954 258.732 100.59 256.786C101.057 255.521 101.793 254.459 102.709 253.728L103.133 250.392L105.888 249.558Z" fill="black"/>
<path d="M105.888 245.111L106.312 249.003H108.219L107.583 244.554L105.888 245.111Z" fill="#FFB8B8"/>
<path d="M97.9189 234.779L100.696 222.732C100.696 222.732 96.0342 217.172 99.213 215.504C102.392 213.836 103.239 222.176 103.239 222.176L102.18 236.632H97.9415L97.9189 234.779Z" fill="#FFB8B8"/>
<path d="M104.404 225.928C104.404 225.928 98.9275 235.144 99.7587 236.513C100.59 237.882 102.073 246.222 102.073 246.222C102.073 246.222 101.861 249.558 102.709 249.558C103.557 249.558 105.676 249.002 105.676 248.168C105.676 247.334 103.769 236.77 103.769 236.77L109.279 227.318L104.404 225.928Z" fill="#6C63FF"/>
<path d="M104.829 226.485L110.338 222.593C110.338 222.593 114.153 225.095 113.093 227.318C112.034 229.542 107.16 235.38 107.16 235.38C107.16 235.38 108.643 244.832 108.431 245.11C108.219 245.388 105.888 246.5 105.252 246.222C104.617 245.944 101.226 235.102 102.074 234.546C102.921 233.99 105.676 228.152 105.676 228.152L104.829 226.485Z" fill="#6C63FF"/>
<path d="M89.7827 332.846C89.7827 332.846 93.5972 335.904 94.021 335.904C94.4448 335.904 100.167 337.85 97.6236 339.24C95.0806 340.63 85.3325 338.684 85.5444 337.85C85.7563 337.016 85.5444 332.012 85.9682 332.012C86.3921 332.012 89.7827 332.846 89.7827 332.846Z" fill="#2F2E41"/>
<path d="M94.021 332.401C94.021 332.401 97.8355 335.459 98.2593 335.459C98.6831 335.459 104.405 337.405 101.862 338.795C99.3189 340.185 89.5708 338.239 89.7827 337.405C89.9946 336.571 89.7827 331.567 90.2065 331.567C90.6304 331.567 94.021 332.401 94.021 332.401Z" fill="#2F2E41"/>
<path d="M89.6272 274.43C89.6272 274.43 90.6302 281.973 91.6898 285.031C92.7494 288.089 91.4779 302.544 90.8421 304.768C90.2064 306.992 84.0609 333.402 85.9681 333.68C87.8753 333.958 91.6898 333.68 91.6898 333.68L97.8353 308.382L96.7758 274.467L89.6272 274.43Z" fill="#575A88"/>
<path opacity="0.1" d="M89.6272 274.43C89.6272 274.43 90.6302 281.973 91.6898 285.031C92.7494 288.089 91.4779 302.544 90.8421 304.768C90.2064 306.992 84.0609 333.402 85.9681 333.68C87.8753 333.958 91.6898 333.68 91.6898 333.68L97.8353 308.382L96.7758 274.467L89.6272 274.43Z" fill="black"/>
<path d="M91.2663 273.744C91.2663 273.744 92.1139 281.25 94.0211 282.918C95.9284 284.586 95.2926 286.254 95.2926 286.254L94.445 300.988C94.445 300.988 86.1803 327.676 88.7233 331.012C91.2663 334.347 93.5974 332.957 94.6569 332.679C95.7165 332.401 97.6238 326.564 96.5642 324.896C95.5046 323.228 98.6833 313.22 99.531 311.552C100.379 309.884 99.531 307.66 100.591 307.104C101.65 306.548 103.981 302.934 103.981 300.432C103.981 297.93 106.948 271.242 105.041 269.574C103.134 267.906 90.9083 273.017 90.9083 273.017L91.2663 273.744Z" fill="#575A88"/>
<path d="M87.2393 234.824C89.8141 234.824 91.9014 232.086 91.9014 228.708C91.9014 225.331 89.8141 222.593 87.2393 222.593C84.6645 222.593 82.5771 225.331 82.5771 228.708C82.5771 232.086 84.6645 234.824 87.2393 234.824Z" fill="#FFB8B8"/>
<path d="M97.835 211.473C99.9416 211.473 101.649 209.232 101.649 206.469C101.649 203.705 99.9416 201.465 97.835 201.465C95.7283 201.465 94.0205 203.705 94.0205 206.469C94.0205 209.232 95.7283 211.473 97.835 211.473Z" fill="#FFB8B8"/>
<path d="M90.4185 228.708C90.4185 228.708 92.9615 234.824 94.233 234.824C95.5044 234.824 89.147 241.218 89.147 241.218C89.147 241.218 87.0278 233.156 86.604 232.878C86.1802 232.6 90.4185 228.708 90.4185 228.708Z" fill="#FFB8B8"/>
<path d="M91.2658 234.269C91.2658 234.269 85.756 236.771 85.9679 237.605C86.1798 238.439 84.4845 240.385 84.4845 241.218C84.4845 242.052 84.0607 249.558 86.6037 255.674C89.1466 261.79 93.173 266.238 91.2658 269.018C89.3586 271.798 86.3917 276.524 89.5705 276.524C92.7492 276.524 97.8351 270.408 102.497 272.632C107.159 274.856 106.1 266.516 106.1 266.516C106.1 266.516 106.736 260.122 105.464 258.176C104.193 256.23 99.7424 242.33 99.7424 240.662C99.7424 238.994 95.5041 232.601 94.4445 232.601C93.3849 232.601 91.2658 234.269 91.2658 234.269Z" fill="#8985A8"/>
<path d="M98.8945 209.527C98.8945 209.527 100.62 213.831 100.711 214.598C100.802 215.365 103.769 209.527 103.769 209.527L100.378 206.469L98.8945 209.527Z" fill="#FFB8B8"/>
<path d="M99.5305 212.863L103.133 207.859L107.371 210.361C107.371 210.361 111.324 221.759 111.573 222.593C111.822 223.427 105.252 227.318 104.616 227.318C103.981 227.318 99.5305 218.701 99.5305 218.701C99.5305 218.701 98.4709 214.531 99.5305 212.863Z" fill="#F2F2F2"/>
<path d="M97.835 219.534V224.539H100.378L99.5419 219.534H97.835Z" fill="#FFB8B8"/>
<path d="M99.2864 223.288C98.9651 223.282 98.65 223.405 98.3833 223.64C98.1166 223.875 97.9109 224.211 97.7936 224.604C97.6279 225.192 97.6841 225.809 98.4713 226.067C100.167 226.623 100.378 226.067 100.378 226.067C100.378 226.067 103.321 225.511 102.698 224.4C102.074 223.288 100.378 223.288 100.378 223.288H99.2864Z" fill="#FFB8B8"/>
<path d="M108.431 247.334C108.431 247.334 110.974 250.392 110.338 250.67C109.702 250.948 107.371 254.284 106.947 254.562C106.568 254.811 102.497 256.508 103.133 254.562C103.6 253.297 104.336 252.235 105.252 251.504L105.676 248.168L108.431 247.334Z" fill="#F2F2F2"/>
<path d="M85.5784 224.001C85.8701 223.776 86.2146 223.497 86.2229 223.054C86.2153 222.891 86.1716 222.735 86.0972 222.604C86.0228 222.473 85.9209 222.374 85.804 222.318C85.5688 222.211 85.3199 222.167 85.0717 222.188C84.9764 222.182 84.881 222.194 84.7885 222.225C84.5472 222.323 84.4081 222.644 84.218 222.862C83.9166 223.139 83.5704 223.321 83.2066 223.393C82.6117 223.596 82.0412 223.906 81.5115 224.315C81.4069 224.384 81.3153 224.483 81.2432 224.604C81.1599 224.828 81.1227 225.076 81.1354 225.324C81.0876 226.267 80.6565 227.088 80.3347 227.934C80.0129 228.78 79.8015 229.833 80.1792 230.638C80.3291 230.889 80.469 231.149 80.5983 231.419C80.866 232.15 80.5319 233.051 80.7253 233.822C80.8119 234.126 80.9507 234.399 81.1311 234.621C81.5032 235.112 81.9617 235.476 82.4663 235.681C82.9479 235.876 83.5454 236.005 83.734 236.618C83.7758 236.896 83.8355 237.168 83.9125 237.432C83.9986 237.566 84.1048 237.676 84.2245 237.755C84.3443 237.834 84.475 237.88 84.6088 237.89C84.9044 237.979 85.2086 238.008 85.5108 237.976C85.6619 237.958 85.8089 237.901 85.9426 237.807C86.0764 237.713 86.1942 237.585 86.2889 237.429C86.3743 237.21 86.4801 237.005 86.6039 236.82C86.9108 236.483 87.3768 236.749 87.7709 236.66C87.9306 236.62 88.0783 236.522 88.1968 236.376C88.3153 236.23 88.3996 236.043 88.4397 235.836C88.4505 235.616 88.4968 235.402 88.5755 235.207C88.8202 234.796 89.4641 235.086 89.6257 234.61C89.7307 234.3 89.511 233.973 89.2986 233.781C88.935 233.502 88.5862 233.192 88.2546 232.852C88.0898 232.678 87.9623 232.452 87.8846 232.194C87.8069 231.937 87.7817 231.657 87.8114 231.383C87.9572 230.577 88.7595 230.133 88.7861 229.305C88.7747 229.068 88.7202 228.838 88.6271 228.634C88.534 228.43 88.4049 228.258 88.2507 228.133C87.9416 227.887 87.645 227.614 87.3631 227.317C87.1731 227.076 87.0298 226.773 86.8233 226.557C86.4154 226.223 85.9436 226.048 85.4629 226.053C85.2078 226.019 84.1899 225.864 84.2299 225.355C84.2632 224.931 85.3194 224.2 85.5784 224.001Z" fill="#2F2E41"/>
<path d="M99.5305 212.585C99.5305 212.585 97.1994 213.697 97.1994 215.087C97.1994 216.477 96.1399 220.925 97.1994 220.925C98.259 220.925 100.378 219.858 100.378 219.858L99.5305 212.585Z" fill="#F2F2F2"/>
<path d="M98.8953 232.6C98.8953 232.6 105.041 229.82 105.253 229.82C105.465 229.82 108.432 227.596 108.22 226.763L107.372 219.813C107.372 219.813 103.981 210.639 106.312 210.639C108.643 210.639 109.915 217.867 109.915 217.867C109.915 217.867 115.001 230.376 112.246 233.156C109.491 235.936 98.0477 240.94 97.4119 240.106C96.7762 239.272 98.8953 232.6 98.8953 232.6Z" fill="#FFB8B8"/>
<path d="M104.828 214.531L106.258 216.339L104.404 218.701C104.404 218.701 101.861 217.311 102.073 218.145C102.285 218.979 103.556 221.481 104.404 221.481C105.252 221.481 109.663 217.867 109.683 216.755C109.702 215.643 106.947 211.751 106.311 211.473C105.676 211.195 104.828 214.531 104.828 214.531Z" fill="#FFB8B8"/>
<path d="M102.139 212.593C102.139 212.593 105.252 216.199 105.676 216.199C106.1 216.199 106.871 210.781 106.871 210.781C106.871 210.781 104.359 208.634 103.428 209.219C102.497 209.805 102.139 212.593 102.139 212.593Z" fill="#F2F2F2"/>
<path d="M91.2656 235.936C91.2656 235.936 91.2656 232.044 97.6231 232.044H100.378L99.1065 241.218L94.8682 242.886L91.2656 235.936Z" fill="#8985A8"/>
<path d="M105.153 204.441C104.53 204.437 103.908 204.386 103.289 204.29C102.803 202.749 102.184 201.457 101.515 200.975C100.974 200.431 100.373 199.998 99.7321 199.692C98.3201 198.905 95.9696 199.395 95.8322 200.29C93.0538 202.032 93.7559 205.09 93.7559 205.09C94.1876 206.288 95.1561 205.757 95.9778 205.215C96.0539 205.648 96.2313 206.038 96.485 206.332C96.7387 206.626 97.0561 206.809 97.3928 206.854C98.7496 206.921 99.4076 207.667 99.0805 208.649C98.7534 209.631 98.3603 211.964 99.8379 211.609C101.316 211.255 101.783 212.026 101.521 212.62C101.259 213.213 102.18 211.44 102.18 211.44C102.18 211.44 103.003 213.049 104.014 211.923C104.116 211.794 104.189 211.63 104.224 211.45C104.542 211.695 104.916 211.781 105.278 211.692C106.489 210.981 105.737 209.313 105.737 209.313C105.737 209.313 107.353 208.987 106.832 209.041C106.311 209.095 105.982 208.21 106.863 206.614C107.744 205.018 105.97 204.477 105.153 204.441Z" fill="#2F2E41"/>
<path d="M96.9548 203.189L96.3516 202.926L95.7493 205.3L96.3526 205.563L96.9548 203.189Z" fill="#6C63FF"/>
<path d="M340.859 207.195L346.783 205.679C346.783 205.679 348.228 199.234 349.962 199.993C351.696 200.751 348.806 207.195 348.806 207.195L340.57 212.124L340.859 207.195Z" fill="#A0616A"/>
<path d="M304.881 213.64L302.281 217.999C302.281 217.999 298.524 217.81 299.68 220.464C300.836 223.117 303.437 221.601 303.581 221.032C303.726 220.464 307.916 215.535 307.916 215.535L304.881 213.64Z" fill="#A0616A"/>
<path d="M315.501 208.617L317.668 207.101C317.668 207.101 326.916 206.153 330.383 209.186C333.851 212.218 315.79 212.597 315.79 212.597L315.501 208.617Z" fill="#6C63FF"/>
<path d="M319.619 205.868C319.619 205.868 318.463 202.267 320.052 201.888C320.959 201.655 321.891 201.655 322.798 201.888L321.064 203.783L319.619 205.868Z" fill="#3F3D56"/>
<path opacity="0.1" d="M319.619 205.868C319.619 205.868 318.463 202.267 320.052 201.888C320.959 201.655 321.891 201.655 322.798 201.888L321.064 203.783L319.619 205.868Z" fill="black"/>
<path d="M311.672 227.666L307.482 227.287L308.204 228.993C308.204 228.993 302.425 231.268 304.303 237.712C305.622 242.05 307.217 246.235 309.071 250.222L310.95 254.961C310.95 254.961 314.851 255.719 314.995 254.203C315.14 252.686 314.995 251.928 314.273 251.17C313.61 250.386 313.197 249.303 313.117 248.137C313.117 247.379 313.262 246.621 312.828 246.242C312.395 245.863 312.25 245.294 312.25 244.157C312.25 243.019 310.661 238.849 310.661 238.849C310.661 238.849 315.718 238.66 317.307 240.366C318.897 242.072 324.098 248.516 324.098 248.516C324.386 248.911 324.629 249.358 324.821 249.843C325.11 250.601 325.11 250.98 325.688 251.359C326.266 251.738 325.832 253.255 325.688 253.444C325.543 253.634 324.098 261.216 324.098 261.216C324.098 261.216 322.509 264.817 324.243 265.007C325.977 265.196 327.566 265.386 327.71 265.007C327.871 264.481 328.064 263.974 328.288 263.49C328.722 262.543 328.288 260.458 328.288 260.458C328.288 260.458 332.479 253.444 331.178 249.085C329.878 244.725 327.132 234.869 327.132 234.869L322.942 232.594L315.284 228.993L311.672 227.666Z" fill="#2F2E41"/>
<path d="M311.383 254.013C311.383 254.013 310.516 258.373 310.227 258.562C309.938 258.752 306.759 262.353 308.927 262.922C311.094 263.49 312.683 263.301 313.117 262.732C313.55 262.163 313.406 261.595 314.128 261.405C314.851 261.216 316.151 260.647 316.007 259.32C315.862 257.993 315.14 254.392 314.706 254.013C314.273 253.634 311.383 254.013 311.383 254.013Z" fill="#2F2E41"/>
<path d="M323.954 263.68C323.954 263.68 322.653 265.007 323.376 267.471C324.098 269.935 325.11 272.588 325.11 272.588C325.11 272.588 326.266 277.327 328.144 276.569C328.482 276.412 328.782 276.141 329.016 275.783C329.249 275.426 329.406 274.995 329.473 274.532C329.605 273.861 329.627 273.16 329.537 272.476C329.446 271.793 329.245 271.142 328.948 270.569L327.855 268.418L326.699 264.438L323.954 263.68Z" fill="#2F2E41"/>
<path d="M320.342 207.954C320.342 207.954 318.608 207.764 318.319 208.333C318.03 208.901 316.73 216.483 318.319 217.241C319.908 218 324.677 219.326 325.399 218.379C326.121 217.431 326.41 209.091 326.41 209.091L320.342 207.954Z" fill="#A0616A"/>
<path opacity="0.1" d="M320.342 207.954C320.342 207.954 318.608 207.764 318.319 208.333C318.03 208.901 316.73 216.483 318.319 217.241C319.908 218 324.677 219.326 325.399 218.379C326.121 217.431 326.41 209.091 326.41 209.091L320.342 207.954Z" fill="black"/>
<path d="M317.74 214.209C317.74 214.209 319.763 216.862 321.064 216.483C322.364 216.104 325.398 214.398 325.687 213.64C325.976 212.882 329.589 212.692 329.589 212.692L325.687 226.908L328.433 238.849C328.433 238.849 330.022 236.385 325.687 236.196C321.353 236.006 315.573 233.163 314.562 229.372C314.562 229.372 308.204 228.235 307.915 228.045C307.626 227.856 308.638 226.719 308.638 226.719L312.828 225.202L315.862 220.084L317.74 214.209Z" fill="#F2F2F2"/>
<path d="M319.042 208.333C319.042 208.333 319.764 207.006 319.042 207.006C317.884 206.974 316.726 207.038 315.574 207.195C314.851 207.385 312.106 206.437 311.817 207.575C311.528 208.712 311.528 215.725 312.106 216.294C312.684 216.862 312.973 216.862 312.251 218C311.528 219.137 309.794 222.928 310.228 224.255C310.661 225.581 305.604 225.96 306.327 227.477C306.523 227.91 306.796 228.274 307.123 228.539C307.451 228.803 307.822 228.959 308.205 228.993C308.205 228.993 308.494 225.96 310.228 227.477C311.962 228.993 314.274 232.784 316.152 230.32C318.03 227.856 318.753 225.581 318.897 222.359C319.048 219.952 318.951 217.529 318.608 215.156C318.319 213.261 319.042 208.333 319.042 208.333Z" fill="#6C63FF"/>
<path d="M326.555 211.934C326.555 211.934 327.711 213.261 326.555 216.483C325.399 219.705 322.364 227.287 324.821 232.215C327.277 237.144 328.288 238.47 327.711 239.418C327.359 240.019 327.157 240.747 327.133 241.503L328.722 240.745C328.896 239.195 329.187 237.671 329.589 236.196C330.167 234.3 328.433 228.614 328.433 228.614L329.011 221.222C329.011 221.222 331.323 216.483 331.612 216.294C331.901 216.104 331.034 207.954 331.034 207.954C331.034 207.954 329.589 207.385 328.866 207.954C328.144 208.522 326.555 211.934 326.555 211.934Z" fill="#6C63FF"/>
<path d="M312.684 207.764H311.817L305.893 211.744C305.893 211.744 305.459 209.28 305.17 209.849C304.881 210.418 305.026 211.934 304.303 212.313C303.581 212.692 303.147 213.261 304.303 214.019C305.459 214.777 305.604 214.208 305.604 215.535C305.604 216.862 306.471 217.052 307.193 216.673C307.916 216.293 308.06 216.104 308.783 216.483C309.505 216.862 309.072 217.431 310.083 216.862C311.094 216.293 313.695 216.483 313.695 216.483L312.684 207.764Z" fill="#6C63FF"/>
<path d="M330.022 208.333L331.034 207.954C331.034 207.954 334.068 208.333 334.791 208.333C335.513 208.333 336.235 208.143 336.669 208.143C337.102 208.143 339.27 207.764 339.559 207.385C339.848 207.006 341.148 206.058 341.293 206.627C341.437 207.195 343.026 210.797 341.582 212.503C340.137 214.209 339.848 213.45 338.981 214.209C338.114 214.967 331.178 216.483 331.034 216.294C330.889 216.104 330.022 208.333 330.022 208.333Z" fill="#6C63FF"/>
<path d="M324.098 215.535C326.492 215.535 328.433 212.989 328.433 209.849C328.433 206.708 326.492 204.163 324.098 204.163C321.704 204.163 319.764 206.708 319.764 209.849C319.764 212.989 321.704 215.535 324.098 215.535Z" fill="#A0616A"/>
<path d="M320.908 210.078C320.958 210.202 320.988 210.337 320.998 210.476C321.056 210.798 321.194 211.086 321.391 211.294C321.588 211.502 321.832 211.618 322.084 211.624C322.064 211.746 322.063 211.872 322.082 211.994C322.101 212.117 322.139 212.233 322.195 212.334C322.25 212.436 322.322 212.521 322.404 212.584C322.486 212.647 322.577 212.687 322.672 212.701C322.965 212.208 323.184 211.647 323.316 211.047C323.349 210.811 323.423 210.589 323.534 210.398C323.707 210.207 323.925 210.1 324.151 210.094C325.304 209.899 326.465 209.785 327.627 209.754C327.786 209.769 327.944 209.726 328.085 209.631C328.411 209.355 328.302 208.689 328.096 208.257C327.689 207.412 327.071 206.78 326.348 206.468C325.821 206.282 325.282 206.165 324.738 206.118C324.017 205.967 323.291 205.868 322.562 205.821C321.827 205.777 321.1 206.032 320.481 206.551C320.046 206.953 319.333 208.079 319.682 208.789C319.738 208.903 319.914 208.959 319.989 209.075C320.091 209.233 320.092 209.471 320.208 209.614C320.402 209.853 320.753 209.777 320.908 210.078Z" fill="#2F2E41"/>
<path d="M324.098 200.372C324.098 200.372 319.185 202.646 319.619 205.869C320.052 209.091 321.353 212.882 324.098 212.692C326.843 212.503 328.288 208.583 328.288 208.583L327.566 203.215C327.566 203.215 324.82 200.372 324.098 200.372Z" fill="#3F3D56"/>
<path d="M323.479 211.746C323.479 211.746 325.41 208.997 326.382 210.591C326.382 210.591 326.338 210.512 323.479 211.746Z" fill="#2F2E41"/>
<path d="M327.125 282.031C324.535 282.031 321.331 280.905 318.208 276.837C310.563 266.876 303.3 265.877 303.228 265.868L303.254 265.491C303.328 265.5 310.694 266.512 318.412 276.567C322.377 281.734 326.471 282.051 329.206 281.406C331.013 280.976 332.734 280.066 334.263 278.732L334.434 279.038C332.872 280.402 331.114 281.334 329.268 281.776C328.561 281.945 327.844 282.03 327.125 282.031V282.031Z" fill="#2F2E41"/>
<path d="M307.121 273.821C308.078 273.821 308.854 272.802 308.854 271.546C308.854 270.29 308.078 269.271 307.121 269.271C306.163 269.271 305.387 270.29 305.387 271.546C305.387 272.802 306.163 273.821 307.121 273.821Z" fill="#2F2E41"/>
<path d="M319.403 284.435C320.36 284.435 321.137 283.417 321.137 282.161C321.137 280.904 320.36 279.886 319.403 279.886C318.445 279.886 317.669 280.904 317.669 282.161C317.669 283.417 318.445 284.435 319.403 284.435Z" fill="#2F2E41"/>
</g>
<defs>
<clipPath id="clip0_207_71">
<rect width="419" height="340" fill="white" transform="translate(-2)"/>
</clipPath>
</defs>
</svg>
