<svg width="414" height="365" viewBox="0 0 414 365" fill="none" xmlns="http://www.w3.org/2000/svg">
<g clip-path="url(#clip0_211_543)">
<path d="M395.052 270.676H384.78V307.086H395.052V270.676Z" fill="#1D1768"/>
<path d="M401.053 301.747L375.484 270.272H325.705L295.284 300.614L295.9 301.018H295.68V364.129H400.768V301.018L401.053 301.747Z" fill="#1D1768"/>
<path d="M375.879 269.867L344.668 307.337V364.129H400.768V300.209L375.879 269.867Z" fill="#533E85"/>
<path d="M378.644 332.722H367.187V343.092H378.644V332.722Z" fill="#3F3D56"/>
<path d="M379.644 314.773H368.187V324.978H379.644V314.773Z" fill="#3F3D56"/>
<path d="M379.644 332.722H368.187V343.092H379.644V332.722Z" fill="white"/>
<path d="M379.644 314.773H368.187V324.978H379.644V314.773Z" fill="white"/>
<path d="M202.846 252.261L157.533 197H68.4435L14 251.303L15.0998 252.027H14.7066V364.977H202.784V252.027L202.846 252.261Z" fill="#1D1768"/>
<path d="M208.63 151.078L214.745 146.07C209.994 145.533 208.042 148.186 207.243 150.286C203.532 148.708 199.492 150.776 199.492 150.776L211.728 155.325C211.11 153.637 210.035 152.164 208.63 151.078Z" fill="#3F3D56"/>
<path d="M285.238 146.41L291.354 141.402C286.604 140.865 284.652 143.519 283.853 145.618C280.142 144.04 276.102 146.108 276.102 146.108L288.336 150.657C287.719 148.969 286.645 147.496 285.238 146.41Z" fill="#3F3D56"/>
<path d="M259.013 184.561L265.129 179.553C260.377 179.016 258.426 181.669 257.627 183.769C253.916 182.191 249.876 184.259 249.876 184.259L262.11 188.808C261.494 187.119 260.419 185.646 259.013 184.561Z" fill="#3F3D56"/>
<path d="M182.368 190.978H172.097V227.388H182.368V190.978Z" fill="#1D1768"/>
<path d="M307.273 234.266H297.001V270.676H307.273V234.266Z" fill="#3F3D56"/>
<path d="M307.273 230.625H297.001V267.035H307.273V230.625Z" fill="#1D1768"/>
<path d="M322.796 277.064L287.733 234.42H218.94L176.9 276.352L177.749 276.911H177.446V364.129H322.676V276.911L322.796 277.064Z" fill="#1D1768"/>
<path d="M288.278 233.861L245.146 285.643V364.129H322.675V275.793L288.278 233.861Z" fill="#533E85"/>
<path d="M155.858 197L100 264.06V365.701H200.403V251.303L155.858 197Z" fill="#533E85"/>
<path d="M163.58 275.796H143.075V297.266H163.58V275.796Z" fill="#3F3D56"/>
<path d="M163.58 305.01H143.075V326.479H163.58V305.01Z" fill="#3F3D56"/>
<path d="M129.505 276H109V297.47H129.505V276Z" fill="white"/>
<path d="M129.505 307H109V328.469H129.505V307Z" fill="white"/>
<path d="M191.938 275.796H171.434V297.266H191.938V275.796Z" fill="#3F3D56"/>
<path d="M191.938 305.01H171.434V326.479H191.938V305.01Z" fill="#3F3D56"/>
<path d="M163.505 276H143V297.47H163.505V276Z" fill="white"/>
<path d="M163.505 305H143V326.469H163.505V305Z" fill="white"/>
<path d="M192.505 276H172V297.47H192.505V276Z" fill="white"/>
<path d="M192.505 305H172V326.469H192.505V305Z" fill="white"/>
<path d="M281.172 319.36H265.339V335.056H281.172V319.36Z" fill="#3F3D56"/>
<path d="M281.172 295.92H265.339V311.616H281.172V295.92Z" fill="#3F3D56"/>
<path d="M281.172 319.36H265.339V335.056H281.172V319.36Z" fill="white"/>
<path d="M281.172 295.92H265.339V311.616H281.172V295.92Z" fill="white"/>
<path d="M304.331 319.36H288.497V335.056H304.331V319.36Z" fill="#3F3D56"/>
<path d="M304.331 295.92H288.497V311.616H304.331V295.92Z" fill="#3F3D56"/>
<path d="M304.331 319.36H288.497V335.056H304.331V319.36Z" fill="white"/>
<path d="M304.331 295.92H288.497V311.616H304.331V295.92Z" fill="white"/>
<path d="M207.098 134.542C297.728 134.542 371.197 132.7 371.197 130.427C371.197 128.155 297.728 126.313 207.098 126.313C116.469 126.313 43 128.155 43 130.427C43 132.7 116.469 134.542 207.098 134.542Z" fill="#E6E6E6"/>
<path d="M220.577 85.8517V81H193.514V81.3035V85.8517V124.968V129.82H198.927H220.577V124.968H198.927V85.8517H220.577Z" fill="#533E85"/>
<path d="M233.771 81V129.82H260.834V81H233.771ZM255.422 124.968H239.184V85.8517H255.422V124.968Z" fill="#533E85"/>
<path d="M158.669 124.968V81.3032H153.257V124.968V129.82H158.669H180.32V124.968H158.669Z" fill="#533E85"/>
<path d="M141.079 85.8517V81H114.016V81.3035V85.8517V102.833V107.685V124.968V129.82H119.429H141.079V124.968H119.429V107.685H141.079V102.833H119.429V85.8517H141.079Z" fill="#533E85"/>
<path d="M352.85 85.8517V81H325.786V81.3035V85.8517V102.833V107.685V124.968V129.82H331.199H352.85V124.968H331.199V107.685H352.85V102.833H331.199V85.8517H352.85Z" fill="#533E85"/>
<path d="M95.7468 81.3034V121.402L81.4754 108.61L81.4429 108.639L81.4127 108.612L66.8229 121.689V81.1519H61.4102V129.669H66.8229V128.551L81.4455 115.444L95.7468 128.263V129.82H101.16V81.3034H95.7468Z" fill="#533E85"/>
<path d="M307.856 81.3034V82.4212L293.234 95.528L278.932 82.709V81.1519H273.52V129.669H278.932V89.5702L293.204 102.363L293.236 102.333L293.266 102.36L307.856 89.2823V129.82H313.269V81.3034H307.856Z" fill="#533E85"/>
</g>
<defs>
<clipPath id="clip0_211_543">
<rect width="414" height="365" fill="white"/>
</clipPath>
</defs>
</svg>
